<svg xmlns="http://www.w3.org/2000/svg" width="40" height="40" viewBox="0 0 40 40">
  <path id="Path_111" data-name="Path 111" d="M13694.6,4150.518h-11.923a5.462,5.462,0,0,1,1.063-3.082,20.576,20.576,0,0,1,3.965-3.908,26.341,26.341,0,0,0,3.18-2.99,4.757,4.757,0,0,0,1.4-3.15,2.942,2.942,0,0,0-.964-2.253,3.455,3.455,0,0,0-2.437-.89,3.335,3.335,0,0,0-3.519,3.646l-2.258-.258a5.385,5.385,0,0,1,1.8-3.868,6.056,6.056,0,0,1,4.034-1.334,5.622,5.622,0,0,1,4.133,1.467,4.808,4.808,0,0,1,1.479,3.543,6.087,6.087,0,0,1-1.247,3.5,27.016,27.016,0,0,1-4.966,4.747,10.557,10.557,0,0,0-2.592,2.688h8.853Zm-6.4-25.667a18.095,18.095,0,1,0,18.095,18.095A18.181,18.181,0,0,0,13688.205,4124.851Zm0,38.095a19.958,19.958,0,0,1-14.771-33.425,19.808,19.808,0,0,1,14.771-6.575,20,20,0,0,1,0,40Z" transform="translate(-13668.205 -4122.946)" fill="#789a40" fill-rule="evenodd"/>
</svg>
