<svg xmlns="http://www.w3.org/2000/svg" width="26.308" height="26.308" viewBox="0 0 26.308 26.308"><path d="M12528.4,243.865l1.145-16.209,16.638.069,1.112,16.208Zm20.863.665-1.36-17.93a.822.822,0,0,0-.82-.76h-18.437a.821.821,0,0,0-.82.761l-1.373,18.093a.822.822,0,0,0,.82.884h21.2a.823.823,0,0,0,.822-.823A.787.787,0,0,0,12549.265,244.53Z" transform="translate(-12524.72 -219.27)"/><path d="M12537.865,219.27a6.589,6.589,0,0,0-6.579,6.581v3.278a.822.822,0,1,0,1.645,0v-3.278a4.935,4.935,0,1,1,9.869,0v3.278a.823.823,0,1,0,1.646,0v-3.278A6.589,6.589,0,0,0,12537.865,219.27Z" transform="translate(-12524.72 -219.27)"/><rect width="26.308" height="26.308" fill="none"/></svg>