<svg xmlns="http://www.w3.org/2000/svg" width="110" height="21.21" viewBox="0 0 110 21.21">
  <path id="Path_138" data-name="Path 138" d="M13246.554,1483.46h3a1.989,1.989,0,0,0,1.525-.51,1.654,1.654,0,0,0,.482-1.17c0-1.25-1.449-1.89-1.964-1.38.515-.51-.122-1.96-1.377-1.96a1.664,1.664,0,0,0-1.173.49,1.987,1.987,0,0,0-.5,1.52Z" transform="translate(-13241.824 -1472.77)" fill="#e72c6f" fill-rule="evenodd"/>
  <path id="Path_139" data-name="Path 139" d="M13280.191,1476.94a.9.9,0,1,0-.905.91.9.9,0,0,0,.905-.91" transform="translate(-13241.824 -1472.77)" fill="#789940" fill-rule="evenodd"/>
  <path id="Path_140" data-name="Path 140" d="M13249.579,1472.77a7.981,7.981,0,0,0-5.562,2.26c-1.737,1.71-2.194,3.58-2.193,6.07v12.84a3.842,3.842,0,0,0,2.859-1.04,4.289,4.289,0,0,0,1.028-3.23v-8.68a4.141,4.141,0,0,1,1.079-3.35,3.971,3.971,0,0,1,2.788-1.08,4.011,4.011,0,0,1,2.793,1.12,3.79,3.79,0,0,1,1.073,2.75,3.87,3.87,0,0,1-1.116,2.75,4.114,4.114,0,0,1-3.2,1.11h-2.571a3.789,3.789,0,0,0,.807,2.25,3.408,3.408,0,0,0,2.746,1.16,6.854,6.854,0,0,0,4.92-1.76,7.148,7.148,0,0,0,2.341-5.51,7.528,7.528,0,0,0-7.793-7.66" transform="translate(-13241.824 -1472.77)" fill="#789940" fill-rule="evenodd"/>
  <path id="Path_141" data-name="Path 141" d="M13309.579,1478.49a8.038,8.038,0,0,1,5.611,2.21c1.751,1.72,2.147,3.62,2.146,6.12v7.12a3.842,3.842,0,0,1-2.859-1.04,4.26,4.26,0,0,1-1.03-3.22v-2.85a4.285,4.285,0,0,0-1.094-3.42,3.833,3.833,0,0,0-2.773-1.12,3.845,3.845,0,0,0-3.867,3.97,4.188,4.188,0,0,0,1.082,2.9,4.075,4.075,0,0,0,3.236,1.13h2.569a3.175,3.175,0,0,1-3.435,3.49,7.122,7.122,0,0,1-5.1-1.85,7.918,7.918,0,0,1,5.512-13.44" transform="translate(-13241.824 -1472.77)" fill="#e72c6f" fill-rule="evenodd"/>
  <path id="Path_142" data-name="Path 142" d="M13273.457,1486.13a4.284,4.284,0,0,1,1.347-3.05,3.693,3.693,0,0,1,4.083-.72c-.555.52-3.633,3.39-5.312,4.95a4.363,4.363,0,0,1-.118-1.18m7.119,2.72c-1.463,1.33-2.307,1.56-3.527,1.49a3.345,3.345,0,0,1-1.149-.28c2.336-2.1,8.137-7.33,8.3-7.48a7.731,7.731,0,0,0-6.516-4.07,7.848,7.848,0,0,0-5.5,1.98,7.671,7.671,0,0,0-2.546,5.31,7.522,7.522,0,0,0,7.237,8.17,7.229,7.229,0,0,0,5.545-2.25,3.593,3.593,0,0,0,.26-4.77Z" transform="translate(-13241.824 -1472.77)" fill="#789940" fill-rule="evenodd"/>
  <path id="Path_143" data-name="Path 143" d="M13289.014,1489.67a4.289,4.289,0,0,1-1.029,3.23,3.845,3.845,0,0,1-2.861,1.04v-7.39a7.408,7.408,0,0,1,2.208-5.83,8.061,8.061,0,0,1,11.048-.04,7.557,7.557,0,0,1,2.161,5.87l0,6.96h-3.89v-6.93a3.881,3.881,0,0,0-1.041-3.17,3.853,3.853,0,0,0-6.6,3.17Z" transform="translate(-13241.824 -1472.77)" fill="#e72c6f" fill-rule="evenodd"/>
  <path id="Path_144" data-name="Path 144" d="M13265.527,1478.49a7.955,7.955,0,0,0-5.565,2.26c-1.781,1.76-2.19,3.64-2.19,6.22v6.97a3.845,3.845,0,0,0,2.861-1.04,4.285,4.285,0,0,0,1.03-3.23l0-3.33a3.964,3.964,0,0,1,1.044-2.91,3.892,3.892,0,0,1,2.822-1.15,3.975,3.975,0,0,1,2.444.85l2.757-2.75a7.771,7.771,0,0,0-5.2-1.89" transform="translate(-13241.824 -1472.77)" fill="#789940" fill-rule="evenodd"/>
  <path id="Path_145" data-name="Path 145" d="M13326.431,1482.45v-3.73h-3.854v-.08a4.285,4.285,0,0,0-1.03-3.23,3.883,3.883,0,0,0-2.861-1.04v11.28c0,2.98.786,4.65,2.23,6.08a7.76,7.76,0,0,0,5.479,2.21v-3.83a4,4,0,0,1-2.757-1.07,3.95,3.95,0,0,1-1.063-3.08v-3.51Z" transform="translate(-13241.824 -1472.77)" fill="#e72c6f" fill-rule="evenodd"/>
  <path id="Path_146" data-name="Path 146" d="M13335.011,1478.49a8.027,8.027,0,0,1,5.607,2.21c1.752,1.72,2.149,3.62,2.148,6.12v7.12a3.847,3.847,0,0,1-2.861-1.04,4.267,4.267,0,0,1-1.028-3.22v-2.85a4.3,4.3,0,0,0-1.094-3.42,3.839,3.839,0,0,0-2.772-1.12,3.847,3.847,0,0,0-3.866,3.97,4.183,4.183,0,0,0,1.081,2.9,4.074,4.074,0,0,0,3.234,1.13h2.569a3.175,3.175,0,0,1-3.433,3.49,7.12,7.12,0,0,1-5.1-1.85,7.918,7.918,0,0,1,5.512-13.44" transform="translate(-13241.824 -1472.77)" fill="#e72c6f" fill-rule="evenodd"/>
  <path id="Path_147" data-name="Path 147" d="M13349.067,1489.04a3.943,3.943,0,0,1-1.062-3.08v-7.32a4.293,4.293,0,0,0-1.031-3.23,3.88,3.88,0,0,0-2.859-1.04v11.28c0,2.98.786,4.65,2.229,6.08a7.763,7.763,0,0,0,5.48,2.21v-3.83a4,4,0,0,1-2.757-1.07" transform="translate(-13241.824 -1472.77)" fill="#e72c6f" fill-rule="evenodd"/>
</svg>
