<svg xmlns="http://www.w3.org/2000/svg" width="212" height="49" viewBox="0 0 212 49"><path d="M11270.252,231.09h5.683a3.811,3.811,0,0,0,2.885-.95,3.149,3.149,0,0,0,.912-2.22c0-2.37-2.739-3.58-3.713-2.6.974-.98-.231-3.71-2.6-3.71a3.162,3.162,0,0,0-2.219.91,3.8,3.8,0,0,0-.946,2.88Z" transform="translate(-11261.332 -203.188)" fill="#e72c6f" fill-rule="evenodd"/><path d="M11333.872,218.77a1.711,1.711,0,1,0-1.712,1.71,1.715,1.715,0,0,0,1.712-1.71" transform="translate(-11261.549 -201.272)" fill="#789940" fill-rule="evenodd"/><path d="M11275.974,210.88a15.038,15.038,0,0,0-10.518,4.27c-3.287,3.23-4.151,6.76-4.149,11.47v24.29a7.246,7.246,0,0,0,5.408-1.97c1.389-1.45,1.945-3.26,1.945-6.09V226.42c0-2.95.394-4.69,2.041-6.33a7.44,7.44,0,0,1,5.272-2.04,7.6,7.6,0,0,1,5.281,2.11,7.149,7.149,0,0,1,2.031,5.2,7.3,7.3,0,0,1-2.111,5.2c-1.533,1.53-3.351,2.11-6.05,2.11h-4.863a7.163,7.163,0,0,0,1.523,4.25,6.484,6.484,0,0,0,5.193,2.19,12.99,12.99,0,0,0,9.307-3.32,13.542,13.542,0,0,0,4.429-10.43c0-8.42-6.4-14.48-14.74-14.48" transform="translate(-11261.306 -206.768)" fill="#789940" fill-rule="evenodd"/><path d="M11389.456,221.69a15.2,15.2,0,0,1,10.612,4.19c3.313,3.26,4.063,6.85,4.06,11.56v13.47a7.24,7.24,0,0,1-5.409-1.96c-1.391-1.45-1.949-3.26-1.949-6.1v-5.38c0-3.03-.431-4.8-2.066-6.47a7.268,7.268,0,0,0-5.247-2.13,7.285,7.285,0,0,0-7.314,7.52,7.912,7.912,0,0,0,2.048,5.48c1.55,1.61,3.412,2.13,6.119,2.14h4.862c0,4.24-2.51,6.6-6.5,6.6a13.435,13.435,0,0,1-9.643-3.5,14.975,14.975,0,0,1,10.425-25.42" transform="translate(-11261.727 -207.362)" fill="#e72c6f" fill-rule="evenodd"/><path d="M11321.136,236.14a8.125,8.125,0,0,1,2.548-5.77,6.985,6.985,0,0,1,7.723-1.35c-1.05.98-6.871,6.4-10.047,9.35a8.08,8.08,0,0,1-.224-2.23m13.465,5.16c-2.768,2.5-4.36,2.94-6.671,2.81a6.438,6.438,0,0,1-2.176-.52c4.419-3.99,15.39-13.88,15.7-14.16a14.576,14.576,0,0,0-12.323-7.69,14.833,14.833,0,0,0-10.406,3.74,14.506,14.506,0,0,0-4.815,10.03,14.22,14.22,0,0,0,13.688,15.46,13.638,13.638,0,0,0,10.486-4.25c2.291-2.66,2.776-6.04.492-9.03Z" transform="translate(-11261.5 -207.386)" fill="#789940" fill-rule="evenodd"/><path d="M11350.559,242.85c0,2.83-.557,4.64-1.946,6.09a7.212,7.212,0,0,1-5.412,1.97V236.93c0-4.6,1.128-8.12,4.177-11.01a15.266,15.266,0,0,1,20.9-.09c3,2.84,4.092,6.55,4.087,11.1l0,13.18h-7.358V237c0-2.96-.467-4.5-1.97-6.01a7.677,7.677,0,0,0-10.509,0c-1.577,1.58-1.969,3.29-1.971,6.01Z" transform="translate(-11261.609 -207.365)" fill="#e72c6f" fill-rule="evenodd"/><path d="M11306.137,221.69a15.041,15.041,0,0,0-10.525,4.28c-3.368,3.32-4.144,6.88-4.144,11.76v13.18a7.255,7.255,0,0,0,5.414-1.97c1.388-1.45,1.947-3.26,1.947-6.09l0-6.3a7.54,7.54,0,0,1,1.974-5.52,7.4,7.4,0,0,1,5.338-2.16,7.479,7.479,0,0,1,4.625,1.61l5.213-5.21a14.67,14.67,0,0,0-9.838-3.58" transform="translate(-11261.416 -207.362)" fill="#789940" fill-rule="evenodd"/><path d="M11421.33,229.19v-7.06h-7.291v-.16c0-2.83-.559-4.64-1.949-6.09a7.288,7.288,0,0,0-5.411-1.97v21.32c0,5.64,1.486,8.81,4.219,11.51a14.659,14.659,0,0,0,10.363,4.17v-7.23a7.585,7.585,0,0,1-5.214-2.04c-1.362-1.38-2.008-2.99-2.012-5.82v-6.63Z" transform="translate(-11261.835 -206.96)" fill="#e72c6f" fill-rule="evenodd"/><path d="M11437.557,221.69a15.186,15.186,0,0,1,10.606,4.19c3.313,3.26,4.065,6.85,4.063,11.56v13.47a7.245,7.245,0,0,1-5.411-1.96c-1.388-1.45-1.945-3.26-1.945-6.1v-5.38c0-3.03-.436-4.8-2.069-6.47a7.274,7.274,0,0,0-5.243-2.13,7.282,7.282,0,0,0-7.312,7.52,7.9,7.9,0,0,0,2.045,5.48c1.549,1.61,3.415,2.13,6.116,2.14h4.859c0,4.24-2.508,6.6-6.491,6.6a13.435,13.435,0,0,1-9.643-3.5,14.975,14.975,0,0,1,10.425-25.42" transform="translate(-11261.905 -207.362)" fill="#e72c6f" fill-rule="evenodd"/><path d="M11464.143,241.64c-1.361-1.38-2.008-2.99-2.01-5.82l0-13.85c0-2.83-.562-4.64-1.949-6.09a7.28,7.28,0,0,0-5.409-1.97l0,21.32c0,5.64,1.486,8.81,4.219,11.51a14.664,14.664,0,0,0,10.365,4.17v-7.23a7.59,7.59,0,0,1-5.216-2.04" transform="translate(-11262.012 -206.96)" fill="#e72c6f" fill-rule="evenodd"/><rect width="212.04" height="48.642" transform="translate(0 0.336)" fill="none"/><g transform="translate(0.408)"><rect width="211" height="49" fill="none"/></g></svg>