<svg xmlns="http://www.w3.org/2000/svg" width="40" height="40" viewBox="0 0 40 40">
  <path id="Path_115" data-name="Path 115" d="M14728.94,4144.749l-.03-1.9a1.434,1.434,0,0,0,1.46-1.423v-1.1a1.924,1.924,0,0,0-1.19-1.78l-1.949-.809-2-4.695a.485.485,0,0,0-.44-.29h-6.3v-1.9h6.3a2.381,2.381,0,0,1,2.19,1.446l1.7,3.982,1.23.51a3.828,3.828,0,0,1,2.359,3.54v1.1A3.33,3.33,0,0,1,14728.94,4144.749Zm-9.49,0h-7.3v-1.9h5.39V4131.48h-9.7a1.353,1.353,0,0,0-1.35,1.349v5.7h-1.9v-5.7a3.257,3.257,0,0,1,3.25-3.254h11.61Zm4.76-2.222a1.27,1.27,0,1,0,1.271,1.27A1.271,1.271,0,0,0,14724.21,4142.527Zm0,4.445a3.175,3.175,0,1,1,3.17-3.175A3.183,3.183,0,0,1,14724.21,4146.972Zm-17.03-4.445a1.27,1.27,0,1,0,1.271,1.27A1.272,1.272,0,0,0,14707.18,4142.527Zm0,4.445a3.175,3.175,0,1,1,3.17-3.175A3.175,3.175,0,0,1,14707.18,4146.972Zm10.96-26.794a18.095,18.095,0,1,0,18.091,18.095A18.118,18.118,0,0,0,14718.14,4120.178Zm0,38.095a20,20,0,1,1,20-20A20.022,20.022,0,0,1,14718.14,4158.273Z" transform="translate(-14698.14 -4118.273)" fill="#789a40" fill-rule="evenodd"/>
</svg>
