<svg xmlns="http://www.w3.org/2000/svg" width="40" height="40" viewBox="0 0 40 40">
  <path id="Path_114" data-name="Path 114" d="M14468.757,4136.765a3.714,3.714,0,1,1-3.714-3.714A3.714,3.714,0,0,1,14468.757,4136.765Zm-3.619-7.624a7.108,7.108,0,0,0-5.789,11.235l.045.071,5.726,10.141,5.81-10.212a7.108,7.108,0,0,0-5.791-11.235Zm-.022,24.67-7.084-12.547a8.7,8.7,0,1,1,14.215,0Zm.023-31.633a18.095,18.095,0,1,0,18.1,18.095A18.116,18.116,0,0,0,14465.139,4122.178Zm0,38.095a20,20,0,1,1,20-20A20.023,20.023,0,0,1,14465.139,4160.273Z" transform="translate(-14445.139 -4120.273)" fill="#789a40" fill-rule="evenodd"/>
</svg>
