<svg xmlns="http://www.w3.org/2000/svg" width="23" height="23.001" viewBox="0 0 23 23.001"><g transform="translate(3.17)"><path d="M12436.23,244.071c-2.51-2.98-6.83-8.859-6.83-12.771a6.83,6.83,0,1,1,13.659,0C12443.06,235.212,12438.739,241.09,12436.23,244.071Zm0-21.1a8.339,8.339,0,0,0-8.33,8.33c0,5.7,7.455,14.068,7.771,14.421a.75.75,0,0,0,1.116,0c.317-.353,7.771-8.721,7.771-14.421A8.339,8.339,0,0,0,12436.23,222.97Z" transform="translate(-12427.9 -222.97)"/></g><path d="M12436.23,233.991a2.691,2.691,0,1,1,2.69-2.691A2.694,2.694,0,0,1,12436.23,233.991Zm0-6.882a4.191,4.191,0,1,0,4.19,4.191A4.2,4.2,0,0,0,12436.23,227.109Z" transform="translate(-12424.73 -222.97)"/><rect width="23" height="23" transform="translate(0 0.001)" fill="none"/></svg>