<svg xmlns="http://www.w3.org/2000/svg" width="40" height="40" viewBox="0 0 40 40">
  <path id="Path_113" data-name="Path 113" d="M14206.192,4152.46a.954.954,0,0,1-.674-.279l-2.508-2.508a.952.952,0,0,1,0-1.347l2.508-2.508a.952.952,0,1,1,1.347,1.347l-1.834,1.834,1.834,1.835a.952.952,0,0,1-.673,1.626Zm.688-2.476h-1a.952.952,0,1,1,0-1.9h1a9.335,9.335,0,0,0,4.667-17.418.953.953,0,1,1,.954-1.649,11.239,11.239,0,0,1-5.621,20.972Zm-1.306-17.318a.952.952,0,0,1-.674-1.626l1.835-1.834-1.835-1.835a.952.952,0,0,1,1.347-1.347l2.508,2.508a.952.952,0,0,1,0,1.347l-2.508,2.508A.948.948,0,0,1,14205.574,4132.666Zm-5.833,16.654a.953.953,0,0,1-.477-.128,11.239,11.239,0,0,1,5.621-20.971h1a.952.952,0,0,1,0,1.9h-1a9.334,9.334,0,0,0-4.667,17.417.952.952,0,0,1-.478,1.777Zm6.34-28.312a18.1,18.1,0,1,0,18.095,18.1A18.115,18.115,0,0,0,14206.081,4121.008Zm0,38.1a20,20,0,1,1,20-20A20.023,20.023,0,0,1,14206.081,4159.1Z" transform="translate(-14186.081 -4119.103)" fill="#789a40" fill-rule="evenodd"/>
</svg>
