<svg xmlns="http://www.w3.org/2000/svg" width="40" height="40" viewBox="0 0 40 40">
  <path id="Path_112" data-name="Path 112" d="M13955.646,4138.878h-1.905a4.572,4.572,0,1,0-9.144,0h-1.9a6.477,6.477,0,1,1,12.953,0Zm-13.1,3.307a1.319,1.319,0,0,0-1.317,1.317v10.913a1.319,1.319,0,0,0,1.317,1.317h12.984a1.317,1.317,0,0,0,1.316-1.317V4143.5a1.318,1.318,0,0,0-1.316-1.317Zm12.984,15.452h-12.984a3.226,3.226,0,0,1-3.222-3.222V4143.5a3.226,3.226,0,0,1,3.222-3.222h12.984a3.226,3.226,0,0,1,3.222,3.222v10.913A3.226,3.226,0,0,1,13955.534,4157.637Zm-6.365-29.809a18.1,18.1,0,1,0,18.095,18.1A18.116,18.116,0,0,0,13949.169,4127.828Zm0,38.1a20,20,0,1,1,20-20A20.023,20.023,0,0,1,13949.169,4165.924Z" transform="translate(-13929.169 -4125.924)" fill="#789a40" fill-rule="evenodd"/>
</svg>
