<svg xmlns="http://www.w3.org/2000/svg" width="40" height="40" viewBox="0 0 40 40">
  <path id="Path_353" data-name="Path 353" d="M11307.808,4136.38h-11.924a5.465,5.465,0,0,1,1.063-3.082,20.586,20.586,0,0,1,3.965-3.908,26.311,26.311,0,0,0,3.18-2.99,4.762,4.762,0,0,0,1.4-3.15,2.938,2.938,0,0,0-.963-2.254,3.458,3.458,0,0,0-2.437-.89,3.578,3.578,0,0,0-2.5.915,3.539,3.539,0,0,0-1.018,2.732l-2.259-.258a5.389,5.389,0,0,1,1.8-3.869,6.046,6.046,0,0,1,4.033-1.333,5.614,5.614,0,0,1,4.133,1.467,4.806,4.806,0,0,1,1.479,3.543,6.1,6.1,0,0,1-1.246,3.5,27.066,27.066,0,0,1-4.967,4.747,10.565,10.565,0,0,0-2.592,2.688h8.854Zm-6.4-25.667a18.095,18.095,0,1,0,18.095,18.1A18.181,18.181,0,0,0,11301.411,4110.713Zm0,38.1a20,20,0,1,1,20-20A20.1,20.1,0,0,1,11301.411,4148.808Z" transform="translate(-11281.411 -4108.808)" fill="#789a40" fill-rule="evenodd"/>
</svg>
