<svg id="Component_3_1" data-name="Component 3 – 1" xmlns="http://www.w3.org/2000/svg" width="16.78" height="16.771" viewBox="0 0 16.78 16.771">
  <path id="Path_341" data-name="Path 341" d="M12478.26,4991.073c2.24,0,2.5.008,3.391.049a4.682,4.682,0,0,1,1.56.289,2.559,2.559,0,0,1,.96.627,2.61,2.61,0,0,1,.63.964,4.835,4.835,0,0,1,.29,1.558c.04.884.05,1.149.05,3.388s-.01,2.5-.05,3.388a4.835,4.835,0,0,1-.29,1.558,2.618,2.618,0,0,1-.63.964,2.571,2.571,0,0,1-.96.627,4.663,4.663,0,0,1-1.56.288c-.891.04-1.15.049-3.391.049s-2.5-.009-3.39-.049a4.67,4.67,0,0,1-1.561-.288,2.571,2.571,0,0,1-.96-.627,2.76,2.76,0,0,1-.63-.964,4.862,4.862,0,0,1-.29-1.558c-.04-.884-.04-1.149-.04-3.388s0-2.5.04-3.388a4.862,4.862,0,0,1,.29-1.558,2.751,2.751,0,0,1,.63-.964,2.559,2.559,0,0,1,.96-.627,4.689,4.689,0,0,1,1.561-.289C12475.76,4991.081,12476.02,4991.073,12478.26,4991.073Zm0-1.511c-2.279,0-2.56.01-3.46.051a6.11,6.11,0,0,0-2.03.389,4.177,4.177,0,0,0-1.489.968,4.111,4.111,0,0,0-.96,1.485,6.071,6.071,0,0,0-.391,2.036c-.05.894-.06,1.179-.06,3.457s.01,2.563.06,3.457a6.071,6.071,0,0,0,.391,2.036,4.111,4.111,0,0,0,.96,1.485,4.177,4.177,0,0,0,1.489.968,6.16,6.16,0,0,0,2.03.389c.9.041,1.181.05,3.46.05s2.561-.009,3.46-.05a6.155,6.155,0,0,0,2.03-.389,4.189,4.189,0,0,0,1.49-.968,4.274,4.274,0,0,0,.97-1.485,6.6,6.6,0,0,0,.39-2.036c.04-.894.051-1.179.051-3.457s-.011-2.563-.051-3.457a6.6,6.6,0,0,0-.39-2.036,4.274,4.274,0,0,0-.97-1.485,4.189,4.189,0,0,0-1.49-.968,6.1,6.1,0,0,0-2.03-.389C12480.82,4989.572,12480.54,4989.562,12478.26,4989.562Z" transform="translate(-12469.87 -4989.562)" fill="#e72a6e" fill-rule="evenodd"/>
  <path id="Path_342" data-name="Path 342" d="M12478.26,4993.642a4.306,4.306,0,1,0,4.311,4.306A4.308,4.308,0,0,0,12478.26,4993.642Zm0,7.1a2.8,2.8,0,1,1,2.8-2.795A2.793,2.793,0,0,1,12478.26,5000.743Z" transform="translate(-12469.87 -4989.562)" fill="#e72a6e" fill-rule="evenodd"/>
  <path id="Path_343" data-name="Path 343" d="M12483.74,4993.472a1,1,0,1,1-1-1.007A1.005,1.005,0,0,1,12483.74,4993.472Z" transform="translate(-12469.87 -4989.562)" fill="#e72a6e" fill-rule="evenodd"/>
</svg>
