<svg xmlns="http://www.w3.org/2000/svg" width="40" height="40" viewBox="0 0 40 40">
  <path id="Path_356" data-name="Path 356" d="M12081.964,4122.627a3.714,3.714,0,1,1-3.715-3.714A3.714,3.714,0,0,1,12081.964,4122.627Zm-3.619-7.624a7.108,7.108,0,0,0-5.79,11.235l.045.07,5.727,10.142,5.809-10.212a7.108,7.108,0,0,0-5.79-11.235Zm-.023,24.669-7.084-12.547a8.7,8.7,0,1,1,14.215,0Zm.023-31.633a18.1,18.1,0,1,0,18.1,18.1A18.116,18.116,0,0,0,12078.345,4108.039Zm0,38.1a20,20,0,1,1,20-20A20.023,20.023,0,0,1,12078.345,4146.135Z" transform="translate(-12058.345 -4106.135)" fill="#789a40" fill-rule="evenodd"/>
</svg>
