<svg xmlns="http://www.w3.org/2000/svg" width="10.65" height="13.767" viewBox="0 0 10.65 13.767">
  <path id="Path_349" data-name="Path 349" d="M12568.17,4999.024a.266.266,0,0,0,.39-.2c.04-.138.12-.489.16-.635a.365.365,0,0,0-.109-.44,2.273,2.273,0,0,1-.521-1.551,3.742,3.742,0,0,1,3.891-3.788,2.962,2.962,0,0,1,3.289,3.031c0,2.28-1.01,4.2-2.51,4.2a1.221,1.221,0,0,1-1.24-1.522,17.622,17.622,0,0,0,.69-2.807,1.053,1.053,0,0,0-1.06-1.187c-.851,0-1.53.875-1.53,2.046a3.068,3.068,0,0,0,.25,1.252s-.86,3.667-1.01,4.309a8.746,8.746,0,0,0-.03,3.005.107.107,0,0,0,.189.045,8.314,8.314,0,0,0,1.431-2.587c.1-.352.56-2.174.56-2.174a2.251,2.251,0,0,0,1.931.985c2.54,0,4.26-2.317,4.26-5.419a4.72,4.72,0,0,0-5-4.53c-3.76,0-5.65,2.694-5.65,4.94A3.035,3.035,0,0,0,12568.17,4999.024Z" transform="translate(-12566.55 -4991.064)" fill="#e72a6e" fill-rule="evenodd"/>
</svg>
