<svg xmlns="http://www.w3.org/2000/svg" width="40" height="40" viewBox="0 0 40 40">
  <path id="Path_355" data-name="Path 355" d="M11819.4,4138.321a.951.951,0,0,1-.674-.278l-2.508-2.509a.951.951,0,0,1,0-1.346l2.508-2.508a.953.953,0,1,1,1.348,1.347l-1.835,1.834,1.835,1.835a.952.952,0,0,1-.673,1.625Zm.688-2.476h-1a.952.952,0,0,1,0-1.9h1a9.335,9.335,0,0,0,4.667-17.418.953.953,0,0,1,.954-1.649,11.239,11.239,0,0,1-5.621,20.971Zm-1.306-17.318a.952.952,0,0,1-.673-1.625l1.834-1.835-1.835-1.834a.952.952,0,0,1,1.347-1.347l2.508,2.508a.952.952,0,0,1,0,1.347l-2.508,2.507A.946.946,0,0,1,11818.78,4118.527Zm-5.833,16.655a.953.953,0,0,1-.477-.128,11.239,11.239,0,0,1,5.621-20.971h1a.952.952,0,1,1,0,1.9h-1a9.335,9.335,0,0,0-4.667,17.418.952.952,0,0,1-.478,1.777Zm6.34-28.313a18.1,18.1,0,1,0,18.095,18.1A18.116,18.116,0,0,0,11819.287,4106.869Zm0,38.1a20,20,0,1,1,20-20A20.023,20.023,0,0,1,11819.287,4144.965Z" transform="translate(-11799.287 -4104.965)" fill="#789a40" fill-rule="evenodd"/>
</svg>
