<svg xmlns="http://www.w3.org/2000/svg" width="40" height="40" viewBox="0 0 40 40">
  <path id="Path_354" data-name="Path 354" d="M11568.852,4124.739h-1.9a4.572,4.572,0,0,0-9.144,0h-1.9a6.476,6.476,0,0,1,12.951,0Zm-13.1,3.307a1.319,1.319,0,0,0-1.316,1.318v10.913a1.319,1.319,0,0,0,1.316,1.317h12.984a1.319,1.319,0,0,0,1.317-1.317v-10.913a1.319,1.319,0,0,0-1.317-1.318Zm12.984,15.453h-12.984a3.226,3.226,0,0,1-3.222-3.222v-10.913a3.227,3.227,0,0,1,3.222-3.223h12.984a3.227,3.227,0,0,1,3.223,3.223v10.913A3.227,3.227,0,0,1,11568.74,4143.5Zm-6.365-29.809a18.095,18.095,0,1,0,18.1,18.1A18.116,18.116,0,0,0,11562.375,4113.69Zm0,38.1a20,20,0,1,1,20-20A20.023,20.023,0,0,1,11562.375,4151.785Z" transform="translate(-11542.375 -4111.785)" fill="#789a40" fill-rule="evenodd"/>
</svg>
