<svg id="Component_6_1" data-name="Component 6 – 1" xmlns="http://www.w3.org/2000/svg" width="15.816" height="12.397" viewBox="0 0 15.816 12.397">
  <path id="Path_265" data-name="Path 265" d="M13067.52,4663.866l4.5,4.489-4.5,4.488a.863.863,0,0,0,1.223,1.219l5.09-5.08a.909.909,0,0,0,0-1.254l-5.09-5.081a.863.863,0,0,0-1.223,1.219Z" transform="translate(-13067.267 -4661.917)" fill="#eb6297" fill-rule="evenodd"/>
  <path id="Path_269" data-name="Path 269" d="M13076.52,4663.387l4.5,4.489-4.5,4.489a.863.863,0,0,0,1.223,1.219l5.09-5.08a.91.91,0,0,0,0-1.255l-5.09-5.08a.863.863,0,0,0-1.223,1.218Z" transform="translate(-13067.267 -4661.917)" fill="#eb6297" fill-rule="evenodd"/>
</svg>
