<svg xmlns="http://www.w3.org/2000/svg" width="40" height="40" viewBox="0 0 40 40">
  <path id="Path_357" data-name="Path 357" d="M12342.15,4130.611l-.04-1.9a1.428,1.428,0,0,0,1.46-1.423v-1.1a1.912,1.912,0,0,0-1.19-1.781l-1.939-.808-2.011-4.7a.46.46,0,0,0-.43-.289h-6.3v-1.9h6.3a2.392,2.392,0,0,1,2.19,1.446l1.7,3.982,1.23.511a3.828,3.828,0,0,1,2.36,3.54v1.1A3.33,3.33,0,0,1,12342.15,4130.611Zm-9.5,0h-7.3v-1.9h5.4v-11.365h-9.7a1.353,1.353,0,0,0-1.35,1.349v5.7h-1.9v-5.7a3.257,3.257,0,0,1,3.25-3.254h11.6Zm4.77-2.222a1.27,1.27,0,1,0,1.271,1.27A1.271,1.271,0,0,0,12337.42,4128.389Zm0,4.444a3.175,3.175,0,1,1,3.17-3.174A3.176,3.176,0,0,1,12337.42,4132.833Zm-17.03-4.444a1.27,1.27,0,1,0,1.271,1.27A1.271,1.271,0,0,0,12320.39,4128.389Zm0,4.444a3.175,3.175,0,1,1,3.17-3.174A3.183,3.183,0,0,1,12320.39,4132.833Zm10.95-26.794a18.1,18.1,0,1,0,18.1,18.1A18.117,18.117,0,0,0,12331.34,4106.039Zm0,38.1a20,20,0,1,1,20-20A20.028,20.028,0,0,1,12331.34,4144.135Z" transform="translate(-12311.34 -4104.135)" fill="#789a40" fill-rule="evenodd"/>
</svg>
