<svg xmlns="http://www.w3.org/2000/svg" width="19.05" height="15.485" viewBox="0 0 19.05 15.485">
  <path id="Path_346" data-name="Path 346" d="M12499.01,5003.933a11.122,11.122,0,0,0,17.11-9.872,7.86,7.86,0,0,0,1.939-2.024,7.709,7.709,0,0,1-2.239.616,3.9,3.9,0,0,0,1.72-2.163,7.849,7.849,0,0,1-2.48.949,3.911,3.911,0,0,0-6.659,3.566,11.106,11.106,0,0,1-8.061-4.085,3.91,3.91,0,0,0,1.21,5.22,3.887,3.887,0,0,1-1.77-.49,3.9,3.9,0,0,0,3.13,3.883,3.883,3.883,0,0,1-1.76.066,3.9,3.9,0,0,0,3.649,2.716A7.852,7.852,0,0,1,12499.01,5003.933Z" transform="translate(-12499.01 -4990.205)" fill="#e72a6e" fill-rule="evenodd"/>
</svg>
