<svg id="Component_2_1" data-name="Component 2 – 1" xmlns="http://www.w3.org/2000/svg" width="21.38" height="15.063" viewBox="0 0 21.38 15.063">
  <path id="Path_347" data-name="Path 347" d="M12551.01,4992.768a2.674,2.674,0,0,0-1.89-1.9c-1.66-.45-8.351-.45-8.351-.45s-6.68,0-8.35.45a2.691,2.691,0,0,0-1.89,1.9,30.02,30.02,0,0,0,0,10.359,2.692,2.692,0,0,0,1.89,1.9c1.67.45,8.35.45,8.35.45s6.69,0,8.351-.45a2.675,2.675,0,0,0,1.89-1.9,30.02,30.02,0,0,0,0-10.359Z" transform="translate(-12530.08 -4990.416)" fill="#e72a6e" fill-rule="evenodd"/>
  <path id="Path_348" data-name="Path 348" d="M12538.59,5001.126v-6.357l5.58,3.178Z" transform="translate(-12530.08 -4990.416)" fill="#fff" fill-rule="evenodd"/>
</svg>
